<svg xmlns="http://www.w3.org/2000/svg" width="2400" height="1800" viewBox="0 0 2400 1800">
  <defs>
    <style>
      .bg { fill: #050607; }
      .title { fill: #f4f6f1; font: 800 48px -apple-system, BlinkMacSystemFont, "Segoe UI", sans-serif; }
      .subtitle { fill: #c4c9c2; font: 600 24px -apple-system, BlinkMacSystemFont, "Segoe UI", sans-serif; }
      .section { fill: #eef4ec; font: 800 30px -apple-system, BlinkMacSystemFont, "Segoe UI", sans-serif; }
      .h1 { fill: #f1f7ef; font: 800 28px -apple-system, BlinkMacSystemFont, "Segoe UI", sans-serif; }
      .h2 { fill: #d9e4d8; font: 700 21px -apple-system, BlinkMacSystemFont, "Segoe UI", sans-serif; }
      .body { fill: #bdd0c0; font: 600 18px -apple-system, BlinkMacSystemFont, "Segoe UI", sans-serif; }
      .small { fill: #cfd2ca; font: 600 16px -apple-system, BlinkMacSystemFont, "Segoe UI", sans-serif; }
      .tiny { fill: #b9bdb6; font: 600 14px -apple-system, BlinkMacSystemFont, "Segoe UI", sans-serif; }
      .muted { fill: #9fa39b; font: 600 16px -apple-system, BlinkMacSystemFont, "Segoe UI", sans-serif; }
      .card { stroke-width: 2.2; rx: 18; ry: 18; filter: url(#shadow); }
      .mini { stroke-width: 1.8; rx: 12; ry: 12; filter: url(#shadow); }
      .hermes { fill: #0a5a49; stroke: #31d0a3; }
      .agent { fill: #0a4d40; stroke: #28bd96; }
      .ledger { fill: #4d390d; stroke: #e0ad34; }
      .projection { fill: #464844; stroke: #aeb0a6; }
      .codex { fill: #0a4d68; stroke: #42c8f0; }
      .chatgpt { fill: #443692; stroke: #8e82ff; }
      .drive { fill: #3f4542; stroke: #b9bbb2; }
      .owner { fill: #6e4309; stroke: #f1a22c; }
      .approval { fill: #5c1f28; stroke: #f16e7f; }
      .source { fill: #233b45; stroke: #69b8d0; }
      .validate { fill: #28324f; stroke: #7c9cf6; }
      .line { fill: none; stroke-width: 3; marker-end: url(#arrow); }
      .thin { stroke-width: 2; }
      .dash { stroke-dasharray: 10 8; }
      .lane { fill: none; stroke: #242725; stroke-width: 2; }
    </style>
    <filter id="shadow" x="-8%" y="-8%" width="116%" height="125%">
      <feDropShadow dx="0" dy="6" stdDeviation="7" flood-color="#000" flood-opacity="0.36"/>
    </filter>
    <marker id="arrow" viewBox="0 0 10 10" refX="9" refY="5" markerWidth="9" markerHeight="9" orient="auto-start-reverse">
      <path d="M 0 0 L 10 5 L 0 10 z" fill="#d2d8cf"/>
    </marker>
  </defs>

  <rect class="bg" width="2400" height="1800"/>

  <text class="title" x="1200" y="72" text-anchor="middle">Tender Export OS v4.1 - Current Working System Model</text>
  <text class="subtitle" x="1200" y="112" text-anchor="middle">Actual repo architecture: Hermes control plane, append-only event ledger, agent pipeline, Codex runtime, ChatGPT boardroom, Drive/Kanban projections, strict owner approvals.</text>

  <!-- Owner and control plane -->
  <rect class="card owner" x="70" y="170" width="330" height="145"/>
  <text class="h1" x="235" y="220" text-anchor="middle">Owner Interface</text>
  <text class="body" x="235" y="258" text-anchor="middle">Telegram / CLI / Hermes commands</text>
  <text class="body" x="235" y="290" text-anchor="middle">approves, rejects, asks changes</text>

  <rect class="card hermes" x="485" y="145" width="470" height="195"/>
  <text class="h1" x="720" y="195" text-anchor="middle">Hermes Chief Operator</text>
  <text class="body" x="720" y="232" text-anchor="middle">control plane + daily operating rhythm</text>
  <text class="body" x="720" y="264" text-anchor="middle">Kanban routing, owner briefings, gates</text>
  <text class="body" x="720" y="296" text-anchor="middle">source/plugin health, memory proposals</text>

  <rect class="card validate" x="1045" y="145" width="380" height="195"/>
  <text class="h1" x="1235" y="195" text-anchor="middle">Automation Scheduler</text>
  <text class="body" x="1235" y="232" text-anchor="middle">config/hermes_cron.yaml</text>
  <text class="body" x="1235" y="264" text-anchor="middle">config/agent_loops.json</text>
  <text class="body" x="1235" y="296" text-anchor="middle">config/loop_schedule.json</text>

  <rect class="card projection" x="1520" y="145" width="410" height="195"/>
  <text class="h1" x="1725" y="195" text-anchor="middle">Hermes Kanban</text>
  <text class="body" x="1725" y="232" text-anchor="middle">durable workboard</text>
  <text class="body" x="1725" y="264" text-anchor="middle">tasks, blockers, approvals</text>
  <text class="body" x="1725" y="296" text-anchor="middle">projection from ledger/registers</text>

  <rect class="card approval" x="1995" y="145" width="335" height="195"/>
  <text class="h1" x="2162" y="195" text-anchor="middle">Approval Boundary</text>
  <text class="small" x="2162" y="232" text-anchor="middle">no external send/submit</text>
  <text class="small" x="2162" y="260" text-anchor="middle">no DSC/payment/final quote</text>
  <text class="small" x="2162" y="288" text-anchor="middle">no HSN/origin/delivery commit</text>

  <path class="line" stroke="#f1a22c" d="M400 242 L485 242"/>
  <path class="line" stroke="#31d0a3" d="M955 242 L1045 242"/>
  <path class="line" stroke="#31d0a3" d="M1425 242 L1520 242"/>
  <path class="line" stroke="#f16e7f" d="M1930 242 L1995 242"/>

  <!-- Sources -->
  <rect class="card source" x="70" y="430" width="390" height="360"/>
  <text class="section" x="265" y="482" text-anchor="middle">Inputs / Sources</text>
  <rect class="mini source" x="105" y="520" width="320" height="58"/>
  <text class="h2" x="265" y="556" text-anchor="middle">Gov portals</text>
  <rect class="mini source" x="105" y="594" width="320" height="58"/>
  <text class="h2" x="265" y="630" text-anchor="middle">Export RFQ portals</text>
  <rect class="mini source" x="105" y="668" width="320" height="58"/>
  <text class="h2" x="265" y="704" text-anchor="middle">Supplier sources</text>
  <rect class="mini source" x="105" y="742" width="320" height="58"/>
  <text class="h2" x="265" y="778" text-anchor="middle">Evidence, PDFs, BOQs</text>

  <!-- Agent pipeline -->
  <rect class="lane" x="500" y="405" width="900" height="875" rx="28" ry="28"/>
  <text class="section" x="950" y="458" text-anchor="middle">Operating Agent Pipeline</text>

  <rect class="mini agent" x="540" y="500" width="245" height="92"/>
  <text class="h2" x="662" y="535" text-anchor="middle">1 Radar</text>
  <text class="small" x="662" y="565" text-anchor="middle">finds leads, case IDs</text>

  <rect class="mini agent" x="835" y="500" width="245" height="92"/>
  <text class="h2" x="958" y="535" text-anchor="middle">2 Fast Kill</text>
  <text class="small" x="958" y="565" text-anchor="middle">score, reject, watchlist</text>

  <rect class="mini agent" x="1130" y="500" width="245" height="92"/>
  <text class="h2" x="1252" y="535" text-anchor="middle">3 Deep Read</text>
  <text class="small" x="1252" y="565" text-anchor="middle">PDF/BOQ extraction</text>

  <rect class="mini agent" x="540" y="645" width="245" height="92"/>
  <text class="h2" x="662" y="680" text-anchor="middle">4 Supplier Engine</text>
  <text class="small" x="662" y="710" text-anchor="middle">5-3-2 supplier proof</text>

  <rect class="mini agent" x="835" y="645" width="245" height="92"/>
  <text class="h2" x="958" y="680" text-anchor="middle">5 Pricing</text>
  <text class="small" x="958" y="710" text-anchor="middle">draft cost waterfall</text>

  <rect class="mini agent" x="1130" y="645" width="245" height="92"/>
  <text class="h2" x="1252" y="680" text-anchor="middle">6 Compliance</text>
  <text class="small" x="1252" y="710" text-anchor="middle">draft HSN/export flags</text>

  <rect class="mini agent" x="540" y="790" width="245" height="92"/>
  <text class="h2" x="662" y="825" text-anchor="middle">7 Pack Builder</text>
  <text class="small" x="662" y="855" text-anchor="middle">bid/quote packs</text>

  <rect class="mini approval" x="835" y="790" width="245" height="92"/>
  <text class="h2" x="958" y="825" text-anchor="middle">8 Approval Desk</text>
  <text class="small" x="958" y="855" text-anchor="middle">owner decision cards</text>

  <rect class="mini agent" x="1130" y="790" width="245" height="92"/>
  <text class="h2" x="1252" y="825" text-anchor="middle">9 Execution Tracker</text>
  <text class="small" x="1252" y="855" text-anchor="middle">post-approval receipts</text>

  <rect class="mini agent" x="540" y="935" width="390" height="92"/>
  <text class="h2" x="735" y="970" text-anchor="middle">10 Owner Briefing</text>
  <text class="small" x="735" y="1000" text-anchor="middle">daily brief, one owner action</text>

  <rect class="mini codex" x="985" y="935" width="390" height="92"/>
  <text class="h2" x="1180" y="970" text-anchor="middle">11 Codex Plugin Factory</text>
  <text class="small" x="1180" y="1000" text-anchor="middle">spreadsheets, PDFs, dashboards, packs</text>

  <rect class="mini validate" x="540" y="1080" width="835" height="130"/>
  <text class="h2" x="958" y="1120" text-anchor="middle">Status Flow</text>
  <text class="small" x="958" y="1150" text-anchor="middle">NEW → FAST_KILL → WATCHLIST / REJECTED → DEEP_READ → SUPPLIER_SEARCH</text>
  <text class="small" x="958" y="1178" text-anchor="middle">PRICING_READY → ARTIFACT_PRODUCTION → APPROVAL_REQUIRED → APPROVED</text>
  <text class="small" x="958" y="1206" text-anchor="middle">SENT_OR_SUBMITTED → FOLLOW_UP → WON / LOST / ARCHIVED</text>

  <path class="line thin" stroke="#69b8d0" d="M460 610 L540 545"/>
  <path class="line thin" stroke="#28bd96" d="M785 546 L835 546"/>
  <path class="line thin" stroke="#28bd96" d="M1080 546 L1130 546"/>
  <path class="line thin" stroke="#28bd96" d="M1252 592 L1252 625 L662 625 L662 645"/>
  <path class="line thin" stroke="#28bd96" d="M785 691 L835 691"/>
  <path class="line thin" stroke="#28bd96" d="M1080 691 L1130 691"/>
  <path class="line thin" stroke="#28bd96" d="M1252 737 L1252 765 L662 765 L662 790"/>
  <path class="line thin" stroke="#f16e7f" d="M785 836 L835 836"/>
  <path class="line thin" stroke="#f16e7f" d="M1080 836 L1130 836"/>

  <!-- Canonical state -->
  <rect class="card ledger" x="1495" y="430" width="420" height="360"/>
  <text class="section" x="1705" y="482" text-anchor="middle">Canonical State</text>
  <text class="h1" x="1705" y="534" text-anchor="middle">data/events.jsonl</text>
  <line x1="1545" y1="570" x2="1865" y2="570" stroke="#826c35" stroke-width="2"/>
  <text class="body" x="1705" y="615" text-anchor="middle">append-only event ledger</text>
  <text class="body" x="1705" y="652" text-anchor="middle">all durable state keyed by case_id</text>
  <text class="body" x="1705" y="689" text-anchor="middle">receipts, approvals, evidence links</text>
  <text class="body" x="1705" y="726" text-anchor="middle">source for rebuild/projections</text>

  <path class="line" stroke="#e0ad34" d="M1400 690 L1495 615"/>
  <path class="line dash" stroke="#e0ad34" d="M1495 690 L1400 840"/>

  <!-- Projections and durable outputs -->
  <rect class="card projection" x="1995" y="430" width="335" height="360"/>
  <text class="section" x="2162" y="482" text-anchor="middle">Projections</text>
  <text class="h2" x="2162" y="530" text-anchor="middle">CSV Registers</text>
  <text class="small" x="2162" y="562" text-anchor="middle">master_cases, rfq, buyers</text>
  <text class="small" x="2162" y="590" text-anchor="middle">suppliers, quotes, health</text>
  <line x1="2040" y1="620" x2="2285" y2="620" stroke="#686b64" stroke-width="1.5"/>
  <text class="h2" x="2162" y="660" text-anchor="middle">Outputs</text>
  <text class="small" x="2162" y="692" text-anchor="middle">case reports, bid packs</text>
  <text class="small" x="2162" y="720" text-anchor="middle">daily briefs, dashboards</text>
  <text class="small" x="2162" y="748" text-anchor="middle">artifact manifests</text>
  <path class="line" stroke="#e0ad34" d="M1915 615 L1995 615"/>

  <rect class="card projection" x="1495" y="875" width="420" height="300"/>
  <text class="section" x="1705" y="927" text-anchor="middle">Receipts / Evidence</text>
  <text class="body" x="1705" y="980" text-anchor="middle">receipts/approvals</text>
  <text class="body" x="1705" y="1017" text-anchor="middle">receipts/drive_sync</text>
  <text class="body" x="1705" y="1054" text-anchor="middle">receipts/browser_research</text>
  <text class="body" x="1705" y="1091" text-anchor="middle">receipts/plugin_runs</text>
  <text class="muted" x="1705" y="1136" text-anchor="middle">everything cites source files / links</text>
  <path class="line" stroke="#aeb0a6" d="M1705 790 L1705 875"/>

  <rect class="card drive" x="1995" y="875" width="335" height="300"/>
  <text class="section" x="2162" y="927" text-anchor="middle">Google Drive</text>
  <text class="body" x="2162" y="978" text-anchor="middle">Knowledge Bus</text>
  <text class="small" x="2162" y="1010" text-anchor="middle">00_Project_Context</text>
  <text class="small" x="2162" y="1038" text-anchor="middle">08_ChatGPT_Bridge</text>
  <text class="body" x="2162" y="1084" text-anchor="middle">shared projection target</text>
  <text class="muted" x="2162" y="1128" text-anchor="middle">not canonical source of truth</text>
  <path class="line" stroke="#b9bbb2" d="M1915 1025 L1995 1025"/>

  <!-- Specialist runtimes -->
  <rect class="lane" x="70" y="1335" width="2260" height="290" rx="28" ry="28"/>
  <text class="section" x="1200" y="1388" text-anchor="middle">Specialist Runtimes and Guardrails</text>

  <rect class="card codex" x="125" y="1435" width="445" height="135"/>
  <text class="h1" x="348" y="1483" text-anchor="middle">Codex App-Server Runtime</text>
  <text class="body" x="348" y="1520" text-anchor="middle">file/script work, plugins, artifacts</text>
  <text class="body" x="348" y="1552" text-anchor="middle">PDF/DOCX/XLSX/PPTX/dashboard production</text>

  <rect class="card chatgpt" x="640" y="1435" width="445" height="135"/>
  <text class="h1" x="862" y="1483" text-anchor="middle">ChatGPT Project</text>
  <text class="body" x="862" y="1520" text-anchor="middle">deep research and strategy boardroom</text>
  <text class="body" x="862" y="1552" text-anchor="middle">bounded packets only, not operational authority</text>

  <rect class="card validate" x="1155" y="1435" width="445" height="135"/>
  <text class="h1" x="1378" y="1483" text-anchor="middle">Validators and Rebuilders</text>
  <text class="body" x="1378" y="1520" text-anchor="middle">schema validation, readiness gates</text>
  <text class="body" x="1378" y="1552" text-anchor="middle">projection rebuilds, health checks</text>

  <rect class="card approval" x="1670" y="1435" width="300" height="135"/>
  <text class="h1" x="1820" y="1483" text-anchor="middle">Strict Safety</text>
  <text class="body" x="1820" y="1520" text-anchor="middle">approval before action</text>
  <text class="body" x="1820" y="1552" text-anchor="middle">draft-only compliance</text>

  <rect class="card ledger" x="2040" y="1435" width="245" height="135"/>
  <text class="h1" x="2162" y="1483" text-anchor="middle">Live State</text>
  <text class="body" x="2162" y="1520" text-anchor="middle">13 cases / 671 events</text>
  <text class="body" x="2162" y="1552" text-anchor="middle">health 16/16 passed</text>

  <path class="line dash" stroke="#42c8f0" d="M1180 1027 L365 1435"/>
  <path class="line dash" stroke="#8e82ff" d="M2162 875 L862 1435"/>
  <path class="line dash" stroke="#7c9cf6" d="M1378 1435 L1705 1175"/>

  <!-- Current live counts -->
  <rect class="mini projection" x="70" y="1655" width="2260" height="82"/>
  <text class="small" x="1200" y="1690" text-anchor="middle">Current register snapshot: 13 cases = 7 GOV + 6 EXPORT | statuses: 9 NEW, 2 SUPPLIER_SEARCH, 1 APPROVAL_REQUIRED, 1 REJECTED | approvals 3 | suppliers 14 | quotes 5 | RFQs 6 | buyers 6</text>
  <text class="tiny" x="1200" y="1722" text-anchor="middle">Generated from manifest.json, AGENTS.md, HERMES.md, data/*.csv, data/events.jsonl, and system_health_check.py in /Users/raghav/Downloads/tender_export_os_v3_1_runtime_system</text>
</svg>
